<svg xmlns="http://www.w3.org/2000/svg" viewBox="0 0 64 64"><style>@media (prefers-color-scheme:dark){rect{fill:#000}path{fill:#fff}}</style><rect width="100%" height="100%" rx="8" ry="8"/><path fill="#fff" d="M28.1 45V22.5h5.4V45zM17.5 22.5V45h-5.4V22.5zm11 8.8v4.5H17.1v-4.5zM43.9 45h-5.2V27.7h5.2zm-2.6-19.8q-1.5 0-2.4-.8-.9-.8-.9-2t.9-2q.9-.8 2.4-.8 1.4 0 2.3.8.9.7.9 1.9 0 1.3-.9 2.1t-2.3.8zm9.3 20q-1.3 0-2.3-.8-.9-.9-.9-2.3t.9-2.3q1-.8 2.3-.8 1.4 0 2.3.8 1 .9 1 2.3t-1 2.3q-.9.8-2.3.8z"/></svg>